<svg width="512" height="512" viewBox="0 0 512 512" xmlns="http://www.w3.org/2000/svg">
  <!-- Background: Chalkboard Green -->
  <rect width="512" height="512" rx="100" fill="#1a472a" />
  <rect x="20" y="20" width="472" height="472" rx="80" fill="none" stroke="#d4af37" stroke-width="16" />
  
  <!-- Texture Noise (Simplified) -->
  <filter id="noise">
    <feTurbulence type="fractalNoise" baseFrequency="0.8" numOctaves="3" result="noise" />
    <feColorMatrix type="matrix" values="1 0 0 0 0  0 1 0 0 0  0 0 1 0 0  0 0 0 0.1 0" />
  </filter>
  <rect width="512" height="512" rx="100" fill="transparent" filter="url(#noise)" opacity="0.4" />

  <!-- The Gaffer Face -->
  <g transform="translate(106, 106) scale(0.6)">
    <!-- Suit -->
    <path d="M50 400 Q 200 300 350 400" fill="#1e293b" />
    <path d="M150 400 L 200 300 L 250 400" fill="#ffffff" />
    <path d="M200 300 L 200 400" stroke="#b91c1c" stroke-width="20" />
    <!-- Head -->
    <circle cx="200" cy="200" r="100" fill="#f59e0b" stroke="#ffffff" stroke-width="8" />
    <!-- Hat -->
    <path d="M100 180 Q 200 80 300 180" fill="#1a237e" />
    <rect x="80" y="180" width="240" height="20" fill="#1a237e" rx="10" />
  </g>

  <!-- Tiny Pie Icon (Bottom Right) -->
  <g transform="translate(300, 320) scale(0.7)">
     <circle cx="100" cy="100" r="80" fill="#b91c1c" stroke="#ffffff" stroke-width="8" />
     <path d="M 60 100 Q 100 60 140 100" fill="none" stroke="#ffffff" stroke-width="8" />
     <path d="M100 60 L 100 20" stroke="#ffffff" stroke-width="6" opacity="0.7" />
     <path d="M130 70 L 150 40" stroke="#ffffff" stroke-width="6" opacity="0.7" />
  </g>
</svg>